<svg width="89" height="22" viewBox="0 0 89 22" fill="none" xmlns="http://www.w3.org/2000/svg">
<path d="M12.5205 21L2.65056 11.7878C-2.71352 6.26048 5.17168 -4.35197 12.5205 4.2338C19.8693 -4.35197 27.7187 6.29733 22.3904 11.7878L12.5205 21Z" stroke="#080808" stroke-linecap="round" stroke-linejoin="round"/>
<path d="M41.3757 19.4615L34.2195 21L36.0085 16.3846V2.53846C36.0085 2.13044 36.197 1.73912 36.5325 1.4506C36.8681 1.16209 37.3231 1 37.7976 1H55.6882C56.1627 1 56.6177 1.16209 56.9533 1.4506C57.2888 1.73912 57.4773 2.13044 57.4773 2.53846V17.9231C57.4773 18.3311 57.2888 18.7224 56.9533 19.0109C56.6177 19.2995 56.1627 19.4615 55.6882 19.4615H41.3757Z" stroke="#080808" stroke-linecap="round" stroke-linejoin="round"/>
<path d="M64.7423 21C69.9717 16.5036 71.2581 14.6364 76.3712 14.6364L79.0548 15.8385V20.0909L88.0001 10.0909L79.0548 1V6.45455H77.2657C68.3204 6.45455 66.5314 15.5455 64.7423 21Z" stroke="#080808" stroke-linecap="round" stroke-linejoin="round"/>
</svg>
